<svg xmlns="http://www.w3.org/2000/svg" width="48" height="48" viewBox="0 0 48 48"><defs><style>.a{fill:#3d81ff;}.b{fill:#fff;}</style></defs><g transform="translate(-37 -100)"><circle class="a" cx="24" cy="24" r="24" transform="translate(37 100)"/><path class="b" d="M6.429.453A2.143,2.143,0,0,0,8.571-1.69V-17.4a2.143,2.143,0,0,0-2.143-2.143H2.143A2.143,2.143,0,0,0,0-17.4V-1.69A2.143,2.143,0,0,0,2.143.453ZM20-1.69V-17.4a2.143,2.143,0,0,0-2.143-2.143H13.571A2.143,2.143,0,0,0,11.429-17.4V-1.69A2.143,2.143,0,0,0,13.571.453h4.286A2.143,2.143,0,0,0,20-1.69Z" transform="translate(51 134)"/></g></svg>