<?xml version="1.0" encoding="utf-8"?>
<!-- Generator: Adobe Illustrator 16.0.0, SVG Export Plug-In . SVG Version: 6.00 Build 0)  -->
<!DOCTYPE svg PUBLIC "-//W3C//DTD SVG 1.0//EN" "http://www.w3.org/TR/2001/REC-SVG-20010904/DTD/svg10.dtd">
<svg version="1.0" xmlns="http://www.w3.org/2000/svg" xmlns:xlink="http://www.w3.org/1999/xlink" x="0px" y="0px" width="22px"
	 height="22px" viewBox="0 0 22 22" enable-background="new 0 0 22 22" xml:space="preserve">
<g id="Layer_1">
	<g>
		<path fill-rule="evenodd" clip-rule="evenodd" fill="#FFCC00" fill-opacity="0.902" d="M1.15,20.9C0.383,20.634,0,20,0,19V2
			c0-1.333,0.667-2,2-2h17c1,0,1.634,0.383,1.9,1.15L21,2v17c0,1.333-0.667,2-2,2H2C1.767,21,1.483,20.967,1.15,20.9z"/>
		<path fill-rule="evenodd" clip-rule="evenodd" fill-opacity="0.2" d="M20.9,1.15C21.634,1.383,22,2,22,3v17c0,1.333-0.667,2-2,2H3
			c-1,0-1.617-0.366-1.85-1.1C1.483,20.967,1.767,21,2,21h17c1.333,0,2-0.667,2-2V2L20.9,1.15z"/>
	</g>
</g>
<g id="Layer_2">
	<path fill-rule="evenodd" clip-rule="evenodd" d="M11.6,5.1c0.233,0,0.45,0.1,0.65,0.3c0.134,0.133,0.2,0.333,0.2,0.6
		c0,0.233-0.066,0.45-0.2,0.65c-0.2,0.167-0.417,0.25-0.65,0.25c-0.267,0-0.466-0.083-0.6-0.25c-0.2-0.2-0.3-0.417-0.3-0.65
		c0-0.267,0.1-0.467,0.3-0.6C11.134,5.2,11.333,5.1,11.6,5.1z M11.7,8.3h0.05c0,0.034,0,0.067,0,0.1L10.2,14
		c-0.067,0.366-0.1,0.583-0.1,0.65c0,0.033,0.017,0.066,0.05,0.1v0.05c0,0.033,0.017,0.05,0.05,0.05c0.066,0,0.15-0.05,0.25-0.149
		c0.3-0.233,0.616-0.566,0.95-1c0-0.033,0.017-0.05,0.05-0.05h0.05l0.25,0.25V14c-0.333,0.533-0.733,1.017-1.2,1.45H10.5
		c-0.433,0.267-0.8,0.399-1.1,0.399c-0.267,0-0.467-0.05-0.6-0.149c-0.167-0.167-0.25-0.367-0.25-0.601s0.05-0.566,0.15-1l1.05-3.6
		c0.2-0.567,0.3-0.917,0.3-1.05c0-0.067-0.017-0.133-0.05-0.2c-0.1-0.067-0.2-0.1-0.3-0.1c-0.133,0-0.383,0.017-0.75,0.05H8.9V9.15
		c-0.033,0-0.05-0.017-0.05-0.05V8.8c0-0.033,0.017-0.05,0.05-0.05c0-0.033,0.017-0.05,0.05-0.05l2.7-0.45L11.7,8.3z"/>
</g>
</svg>
