<?xml version="1.0" encoding="utf-8"?>
<!-- Generator: Adobe Illustrator 16.0.0, SVG Export Plug-In . SVG Version: 6.00 Build 0)  -->
<!DOCTYPE svg PUBLIC "-//W3C//DTD SVG 1.0//EN" "http://www.w3.org/TR/2001/REC-SVG-20010904/DTD/svg10.dtd">
<svg version="1.0" id="Layer_1" xmlns="http://www.w3.org/2000/svg" xmlns:xlink="http://www.w3.org/1999/xlink" x="0px" y="0px"
	 width="22px" height="22px" viewBox="0 0 22 22" enable-background="new 0 0 22 22" xml:space="preserve">
<path fill="#FFCC00" fill-opacity="0.902" d="M1.15,20.9C0.383,20.634,0,20,0,19V2c0-1.333,0.667-2,2-2h17c1,0,1.634,0.383,1.9,1.15
	L21,2v17c0,1.333-0.667,2-2,2H2C1.767,21,1.483,20.967,1.15,20.9z"/>
<path fill-opacity="0.2" d="M20.9,1.15C21.634,1.383,22,2,22,3v17c0,1.333-0.667,2-2,2H3c-1,0-1.617-0.366-1.85-1.1
	C1.483,20.967,1.767,21,2,21h17c1.333,0,2-0.667,2-2V2L20.9,1.15z"/>
<text transform="matrix(1 0 0 1 400 281)" font-family="'MyriadPro-Regular'" font-size="12"></text>
<text transform="matrix(1 0 0 1 400 281)" font-family="'MyriadPro-Regular'" font-size="12"></text>
<g>
	<path d="M5.143,6.215v3c0,0.116,0.045,0.216,0.133,0.301S5.469,9.643,5.59,9.643h3.125c0.195,0,0.333-0.089,0.412-0.268
		c0.079-0.174,0.047-0.328-0.098-0.462L8.066,7.989c0.688-0.611,1.5-0.918,2.434-0.918c0.483,0,0.945,0.091,1.384,0.271
		s0.82,0.425,1.141,0.733c0.32,0.308,0.576,0.673,0.764,1.095s0.283,0.865,0.283,1.329c0,0.465-0.096,0.907-0.283,1.329
		s-0.443,0.787-0.764,1.095c-0.32,0.309-0.701,0.553-1.141,0.733s-0.901,0.271-1.384,0.271c-0.554,0-1.077-0.116-1.569-0.349
		c-0.494-0.232-0.91-0.561-1.249-0.984c-0.032-0.045-0.085-0.071-0.16-0.08c-0.07,0-0.128,0.02-0.175,0.061L6.392,13.5
		c-0.042,0.035-0.064,0.082-0.066,0.137c-0.003,0.057,0.015,0.106,0.052,0.151c0.506,0.589,1.121,1.046,1.841,1.369
		c0.721,0.323,1.482,0.485,2.281,0.485c0.726,0,1.417-0.137,2.078-0.408c0.66-0.272,1.23-0.639,1.709-1.098
		c0.479-0.461,0.861-1.008,1.145-1.641c0.283-0.635,0.426-1.3,0.426-1.996s-0.143-1.361-0.426-1.995s-0.666-1.181-1.145-1.641
		s-1.049-0.826-1.709-1.099S11.227,5.357,10.5,5.357c-0.684,0-1.346,0.124-1.984,0.371C7.876,5.977,7.309,6.326,6.81,6.777
		L5.904,5.913c-0.135-0.139-0.298-0.17-0.488-0.094C5.235,5.896,5.143,6.027,5.143,6.215z"/>
</g>
</svg>
