<svg xmlns="http://www.w3.org/2000/svg" width="23.607" height="23.607" viewBox="0 0 23.607 23.607"><defs><style>.a{fill:#696969;}</style></defs><path class="a" d="M25.963,20.894h0L18.8,13.732,25.962,6.57h0a.739.739,0,0,0,0-1.043L22.579,2.144a.74.74,0,0,0-1.043,0h0L14.374,9.305,7.213,2.144h0a.74.74,0,0,0-1.043,0L2.786,5.527a.739.739,0,0,0,0,1.043h0l7.162,7.162L2.786,20.893h0a.739.739,0,0,0,0,1.043L6.169,25.32a.739.739,0,0,0,1.043,0h0l7.162-7.162,7.162,7.162h0a.739.739,0,0,0,1.043,0l3.383-3.383a.739.739,0,0,0,0-1.043Z" transform="translate(-2.571 -1.928)"/></svg>