<svg xmlns="http://www.w3.org/2000/svg" width="24.278" height="24.67" viewBox="0 0 24.278 24.67"><defs><style>.a{fill:#fff;}</style></defs><path class="a" d="M11.707-11.851V-8.57c1.257.284,2.375.752,3.546,1.074v-3.286C14-11.061,12.873-11.528,11.707-11.851Zm10.758-5.926a14.069,14.069,0,0,1-5.637,1.537c-2.578,0-4.712-1.677-7.959-1.677a9.368,9.368,0,0,0-3.276.578,2.7,2.7,0,0,0,.173-1.137A2.712,2.712,0,0,0,3.184-21,2.7,2.7,0,0,0,.375-18.3,2.691,2.691,0,0,0,1.531-16.09v18.6A1.154,1.154,0,0,0,2.688,3.668h.771A1.154,1.154,0,0,0,4.615,2.512V-2.037A13.433,13.433,0,0,1,10.127-3.1c2.582,0,4.712,1.677,7.959,1.677a10.067,10.067,0,0,0,5.9-1.971,1.537,1.537,0,0,0,.665-1.272V-16.38A1.54,1.54,0,0,0,22.465-17.777ZM8.161-5.318a15.18,15.18,0,0,0-3.546.8v-3.4a13.782,13.782,0,0,1,3.546-.838ZM22.345-11.8A15.37,15.37,0,0,1,18.8-10.646v3.426a8.955,8.955,0,0,0,3.546-1.253v3.4A7.785,7.785,0,0,1,18.8-3.771v-3.45a8.15,8.15,0,0,1-3.546-.27v3.247a28.111,28.111,0,0,0-3.546-1.026v-3.3a10.709,10.709,0,0,0-3.546-.183v-3.373a17,17,0,0,0-3.546,1.007v-3.4a13.8,13.8,0,0,1,3.546-1.06v3.45a8.2,8.2,0,0,1,3.546.275V-15.1a27.423,27.423,0,0,0,3.546,1.026v3.3a9.179,9.179,0,0,0,3.546.13V-14.11a17.044,17.044,0,0,0,3.546-1.084Z" transform="translate(-0.375 21.002)"/></svg>