<svg xmlns="http://www.w3.org/2000/svg" width="60" height="48" viewBox="0 0 60 48"><defs><style>.a{fill:rgba(228,26,26,0.85);}.b{fill:#fff;}</style></defs><g transform="translate(-525.274 -193.545)"><rect class="a" width="60" height="48" transform="translate(525.274 193.545)"/><path class="b" d="M27.269,21.953h0l-7.561-7.562,7.561-7.562h0a.781.781,0,0,0,0-1.1L23.7,2.156a.781.781,0,0,0-1.1,0h0L15.033,9.717,7.472,2.156h0a.781.781,0,0,0-1.1,0L2.8,5.728a.781.781,0,0,0,0,1.1h0l7.562,7.562L2.8,21.952h0a.781.781,0,0,0,0,1.1L6.37,26.626a.781.781,0,0,0,1.1,0h0l7.562-7.562L22.6,26.626h0a.781.781,0,0,0,1.1,0l3.572-3.572a.781.781,0,0,0,0-1.1Z" transform="translate(540.272 203.413)"/></g></svg>