<svg id="Card" xmlns="http://www.w3.org/2000/svg" width="150" height="150" viewBox="0 0 150 150">
  <rect id="Rectangle_Kart" data-name="Rectangle Kart" width="150" height="150" rx="16" fill="#fff"/>
  <g id="KartIc" transform="translate(-2584 106)">
    <rect id="Rectangle_27" data-name="Rectangle 27" width="150" height="150" rx="16" transform="translate(2584 -106)" fill="#7fe1a5"/>
    <path id="path2164" d="M328.443-411.644a.72.72,0,0,1-.72-.721v-6.454a.72.72,0,0,1,.72-.72.72.72,0,0,1,.721.72v6.454a.721.721,0,0,1-.721.721" transform="translate(2263.868 406.152)" fill="#fff"/>
    <path id="path2166" d="M331.615-414.817h-6.454a.72.72,0,0,1-.72-.721.72.72,0,0,1,.72-.72h6.454a.72.72,0,0,1,.721.72.721.721,0,0,1-.721.721" transform="translate(2263.922 406.098)" fill="#fff"/>
    <path id="path2168" d="M432.257-500.507a.72.72,0,0,1-.721-.72v-6.454a.721.721,0,0,1,.721-.721.721.721,0,0,1,.721.721v6.454a.72.72,0,0,1-.721.72" transform="translate(2257.047 407.626)" fill="#fff"/>
    <path id="path2170" d="M435.43-503.679h-6.454a.72.72,0,0,1-.721-.72.721.721,0,0,1,.721-.721h6.454a.721.721,0,0,1,.721.721.72.72,0,0,1-.721.72" transform="translate(2257.037 407.572)" fill="#fff"/>
    <path id="path2172" d="M375.123-466.5a.722.722,0,0,1,0-1.019l4.564-4.564a.722.722,0,0,1,1.019,0,.723.723,0,0,1,0,1.02l-4.564,4.563a.719.719,0,0,1-1.019,0" transform="translate(2260.493 407.027)" fill="#fff"/>
    <path id="path2174" d="M379.688-466.5l-4.564-4.563a.723.723,0,0,1,0-1.02.722.722,0,0,1,1.019,0l4.564,4.564a.722.722,0,0,1,0,1.019.719.719,0,0,1-1.019,0" transform="translate(2260.493 407.027)" fill="#fff"/>
    <path id="path2176" d="M338.277-435.951l-.7.168a.533.533,0,0,1-.414-.064.541.541,0,0,1-.248-.338.543.543,0,0,1,.063-.416.547.547,0,0,1,.34-.248l16.9-4.117a.537.537,0,0,1,.416.063.553.553,0,0,1,.249.34.549.549,0,0,1-.064.416.54.54,0,0,1-.34.248l-.694.169a1.141,1.141,0,0,0-.838,1.378l5.017,20.6a.656.656,0,0,0,.61.5A26.413,26.413,0,0,1,383-397.219a26.4,26.4,0,0,1-10.778,27.951l-17.9,4.36A26.391,26.391,0,0,1,331.9-384.772a26.411,26.411,0,0,1,12.466-29.018.656.656,0,0,0,.311-.724l-5.017-20.6a1.144,1.144,0,0,0-1.109-.871Zm16.238,72.345,18.128-4.416.211-.092a27.706,27.706,0,0,0,11.417-29.414,27.729,27.729,0,0,0-25.138-21.01L354.27-438.5l.527-.129a1.847,1.847,0,0,0,1.15-.84,1.846,1.846,0,0,0,.218-1.407,1.847,1.847,0,0,0-.841-1.15,1.85,1.85,0,0,0-1.407-.218l-16.9,4.117a1.847,1.847,0,0,0-1.15.84,1.848,1.848,0,0,0-.218,1.408,1.848,1.848,0,0,0,.84,1.149,1.852,1.852,0,0,0,1.407.218l.529-.128,4.862,19.959a27.73,27.73,0,0,0-12.662,30.217,27.708,27.708,0,0,0,23.663,20.869l.076,0,.155-.018" transform="translate(2263.833 406.53)" fill="#fffeff"/>
    <path id="path2178" d="M379.768-395.413a22.947,22.947,0,0,1-9.5,23.644l-15.582,3.795a22.943,22.943,0,0,1-19.31-16.626Zm-24.889,28.74,15.812-3.851.211-.093a24.254,24.254,0,0,0,9.994-25.747.653.653,0,0,0-.792-.481l-45.687,11.128a.647.647,0,0,0-.405.3.657.657,0,0,0-.077.5,24.257,24.257,0,0,0,20.713,18.266l.076,0,.155-.018" transform="translate(2263.765 405.776)" fill="#fffeff"/>
    <path id="path2180" d="M371.2-404.241a1.133,1.133,0,0,1-.83,1.366,1.133,1.133,0,0,1-1.366-.831h0a1.13,1.13,0,0,1,.83-1.365l.267-.031A1.132,1.132,0,0,1,371.2-404.241Zm-.519,2.639a2.444,2.444,0,0,0,1.794-2.95,2.45,2.45,0,0,0-2.952-1.8,2.43,2.43,0,0,0-1.508,1.1,2.431,2.431,0,0,0-.286,1.846,2.429,2.429,0,0,0,1.1,1.509,2.434,2.434,0,0,0,1.265.357,2.463,2.463,0,0,0,.582-.071" transform="translate(2260.971 405.935)" fill="#fffeff"/>
    <path id="path2182" d="M346.952-451.452a1.569,1.569,0,0,1,.716.978,1.571,1.571,0,0,1-.185,1.2,1.573,1.573,0,0,1-.978.716,1.575,1.575,0,0,1-1.2-.185,1.569,1.569,0,0,1-.716-.978,1.586,1.586,0,0,1,1.164-1.913,1.552,1.552,0,0,1,.378-.047,1.576,1.576,0,0,1,.819.232Zm-.138,4.166a2.877,2.877,0,0,0,1.788-1.309,2.882,2.882,0,0,0,.34-2.19,2.88,2.88,0,0,0-1.309-1.788,2.875,2.875,0,0,0-2.19-.338,2.9,2.9,0,0,0-2.127,3.5,2.871,2.871,0,0,0,1.307,1.788,2.882,2.882,0,0,0,1.5.422,2.953,2.953,0,0,0,.69-.083" transform="translate(2263.611 406.707)" fill="#fffeff"/>
    <path id="path2184" d="M360.009-397.222a1.51,1.51,0,0,1,.688.941,1.528,1.528,0,0,1-1.121,1.844,1.528,1.528,0,0,1-1.844-1.121h0a1.515,1.515,0,0,1,.178-1.154,1.518,1.518,0,0,1,.943-.69,1.5,1.5,0,0,1,.365-.045,1.515,1.515,0,0,1,.791.224Zm-.122,4.06a2.842,2.842,0,0,0,2.085-3.428,2.818,2.818,0,0,0-1.282-1.753,2.825,2.825,0,0,0-2.145-.333,2.821,2.821,0,0,0-1.753,1.282,2.82,2.82,0,0,0-.332,2.146,2.84,2.84,0,0,0,2.756,2.165,2.882,2.882,0,0,0,.671-.08" transform="translate(2261.676 405.807)" fill="#fffeff"/>
    <path id="path2186" d="M349.053-419.85a1.133,1.133,0,0,1-.132.856,1.125,1.125,0,0,1-.7.51,1.134,1.134,0,0,1-1.366-.831,1.133,1.133,0,0,1,.831-1.366l.268-.031A1.131,1.131,0,0,1,349.053-419.85Zm-.521,2.639a2.419,2.419,0,0,0,1.508-1.1,2.422,2.422,0,0,0,.286-1.848,2.444,2.444,0,0,0-2.95-1.794,2.422,2.422,0,0,0-1.508,1.1,2.419,2.419,0,0,0-.286,1.846,2.447,2.447,0,0,0,2.372,1.865,2.381,2.381,0,0,0,.578-.071" transform="translate(2263.573 406.193)" fill="#fffeff"/>
    <path id="path2188" d="M343.7-396.522a2.12,2.12,0,0,1,.249-1.61,2.122,2.122,0,0,1,1.315-.961,2.118,2.118,0,0,1,1.609.249,2.114,2.114,0,0,1,.961,1.314,2.132,2.132,0,0,1-1.563,2.571,2.129,2.129,0,0,1-1.609-.249A2.116,2.116,0,0,1,343.7-396.522Zm2.881,2.836a3.442,3.442,0,0,0,2.528-4.154,3.441,3.441,0,0,0-4.155-2.527,3.44,3.44,0,0,0-2.527,4.154,3.443,3.443,0,0,0,3.34,2.625,3.414,3.414,0,0,0,.814-.1" transform="translate(2263.625 405.836)" fill="#fffeff"/>
    <path id="path2190" d="M433.182-455.192a35.756,35.756,0,0,1,12.358,2.654c9.662,3.753,14.971,9.319,13.866,12.164-.561,1.446-2.776,2.275-6.079,2.275h-.005a35.717,35.717,0,0,1-12.358-2.654c-9.664-3.751-14.973-9.319-13.867-12.164.561-1.446,2.777-2.275,6.079-2.275h.007M460.63-439.9c1.549-3.99-4.871-10.079-14.615-13.863a37.1,37.1,0,0,0-12.833-2.742h-.007c-3.928,0-6.522,1.105-7.3,3.111-1.549,3.989,4.871,10.078,14.616,13.862a37.062,37.062,0,0,0,12.833,2.742h.005c3.93,0,6.523-1.105,7.3-3.11" transform="translate(2255.017 406.765)" fill="#fffeff"/>
    <path id="path2192" d="M445.308-445.76l-.239-.043-1.571-.611a.656.656,0,0,1-.375-.847l.606-1.573a.659.659,0,0,1,.847-.376.656.656,0,0,1,.378.847l-.372.964.964.374a.656.656,0,0,1,.374.848.656.656,0,0,1-.611.418" transform="translate(2256.276 406.645)" fill="#fffeff"/>
    <path id="path2194" d="M459.934-440.77H459.9a.654.654,0,0,1-.627-.683l2.272-53.406-34.362,40.948a.654.654,0,0,1-.923.08.655.655,0,0,1-.081-.923l35.6-42.424a.658.658,0,0,1,.74-.19.655.655,0,0,1,.418.64L460.588-441.4a.655.655,0,0,1-.654.628" transform="translate(2255.011 407.444)" fill="#fffeff"/>
    <path id="path2196" d="M421.307-370.673h0m-14.739-24.74a30.222,30.222,0,0,1,9.033,7.605c5.605,6.725,8.021,14.341,5.274,16.631s-9.8-1.459-15.408-8.186a30.255,30.255,0,0,1-5.853-10.255c-.889-3.005-.677-5.329.58-6.375a3.2,3.2,0,0,1,2.1-.658,9.876,9.876,0,0,1,4.273,1.238m15.147,25.243c3.405-2.839,1.163-10.956-5.106-18.479a31.611,31.611,0,0,0-9.449-7.935c-3.334-1.686-6.106-1.834-7.808-.417s-2.055,4.172-1,7.754a31.574,31.574,0,0,0,6.1,10.724c4.836,5.8,10.45,9.311,14.329,9.311a4.455,4.455,0,0,0,2.928-.958" transform="translate(2258.497 405.794)" fill="#fffeff"/>
    <path id="path2198" d="M394.93-379.066c-.981-3.438,5.305-8.372,13.724-10.773a30.276,30.276,0,0,1,11.747-1.2c3.108.4,5.147,1.539,5.595,3.112.979,3.438-5.305,8.372-13.724,10.773s-16.363,1.524-17.342-1.916m17.7,3.177c9.417-2.685,15.842-8.13,14.627-12.395-.608-2.129-2.983-3.569-6.686-4.052A31.623,31.623,0,0,0,408.3-391.1c-9.418,2.685-15.842,8.13-14.627,12.395.781,2.742,4.507,4.233,9.572,4.233a34.783,34.783,0,0,0,9.391-1.416" transform="translate(2258.527 405.704)" fill="#fffeff"/>
    <path id="path2200" d="M415.578-398.99c1.555.5,2.616,2.584,2.908,5.7a30.252,30.252,0,0,1-1.619,11.7,30.294,30.294,0,0,1-5.558,10.419c-2.069,2.354-4.149,3.416-5.7,2.908s-2.616-2.583-2.908-5.7a30.254,30.254,0,0,1,1.619-11.7c2.49-7.672,7.062-13.456,10.427-13.456a2.7,2.7,0,0,1,.834.128M412.294-370.3a31.59,31.59,0,0,0,5.82-10.879,31.562,31.562,0,0,0,1.677-12.224c-.349-3.72-1.7-6.144-3.808-6.829-4.214-1.364-9.89,4.855-12.913,14.17a31.587,31.587,0,0,0-1.678,12.224c.349,3.72,1.7,6.143,3.809,6.827a3.945,3.945,0,0,0,1.219.19c1.827,0,3.867-1.2,5.873-3.48" transform="translate(2258.468 405.835)" fill="#fffeff"/>
    <path id="path2202" d="M413.355-380.6a3.751,3.751,0,0,1-5.282-.48,3.749,3.749,0,0,1,.48-5.28,3.748,3.748,0,0,1,5.28.479,3.749,3.749,0,0,1-.479,5.282" transform="translate(2258.399 405.616)" fill="#fffeff"/>
    <path id="path2204" d="M365.315-506.9l1.038,7.554a.654.654,0,0,0,.446.534.656.656,0,0,0,.675-.167l7.591-7.837,14.324,1.315-7.3,6.308a.66.66,0,0,0-.223.569l1.155,10.347L325.66-456.433l23.953-51.915Zm-40.772,52.586,59.5-33.029a.658.658,0,0,0,.334-.646l-1.166-10.437,8.206-7.088a.66.66,0,0,0,.2-.7.656.656,0,0,0-.564-.452l-16.173-1.486a.652.652,0,0,0-.532.2l-6.871,7.095-.926-6.734a.655.655,0,0,0-.589-.564L349.272-509.7a.642.642,0,0,0-.656.378l-24.988,54.157a.658.658,0,0,0,.149.755.655.655,0,0,0,.446.174l.319-.083" transform="translate(2263.937 407.648)" fill="#fffeff"/>
    <path id="path2206" d="M324.224-454.2a.649.649,0,0,1-.388-.127.656.656,0,0,1-.14-.917l38.647-52.472a.655.655,0,0,1,.917-.139.656.656,0,0,1,.14.917L324.751-454.47a.651.651,0,0,1-.527.266" transform="translate(2263.937 407.619)" fill="#fffeff"/>
    <path id="path2208" d="M324.224-454.07a.654.654,0,0,1-.454-.182.656.656,0,0,1-.02-.927l42.78-44.548a.656.656,0,0,1,.927-.02.656.656,0,0,1,.018.927L324.7-454.27a.655.655,0,0,1-.473.2" transform="translate(2263.937 407.486)" fill="#fffeff"/>
    <path id="path2210" d="M324.225-454.057a.656.656,0,0,1-.526-.261.658.658,0,0,1,.131-.919l58.294-43.81a.656.656,0,0,1,.918.131.655.655,0,0,1-.13.918l-58.3,43.81a.644.644,0,0,1-.392.131" transform="translate(2263.937 407.473)" fill="#fffeff"/>
    <path id="path2212" d="M408.679-500.458a.658.658,0,0,0-.574-.729,30.92,30.92,0,0,0-5.456-.129.656.656,0,0,0-.611.7.679.679,0,0,0,.7.611,29.2,29.2,0,0,1,5.216.123l.079,0a.657.657,0,0,0,.65-.578m9.851,3.886a.655.655,0,0,0-.176-.91q-.4-.269-.8-.517a21.992,21.992,0,0,0-4.105-1.956.656.656,0,0,0-.837.4.656.656,0,0,0,.4.838,20.634,20.634,0,0,1,3.86,1.838q.382.232.753.484a.653.653,0,0,0,.367.113.657.657,0,0,0,.544-.288m6.552,8.288a.656.656,0,0,0,.327-.868,19.909,19.909,0,0,0-2.956-4.651.657.657,0,0,0-.924-.076.656.656,0,0,0-.075.924,18.588,18.588,0,0,1,2.761,4.344.653.653,0,0,0,.6.385l.27-.059m1.91,9.925a21.274,21.274,0,0,0,.167-2.637,20.217,20.217,0,0,0-.2-2.865.651.651,0,0,0-.742-.556.656.656,0,0,0-.556.742,18.962,18.962,0,0,1,.19,2.677,19.971,19.971,0,0,1-.156,2.476.653.653,0,0,0,.569.732l.081.005a.656.656,0,0,0,.65-.574m-3.7,10.234a29.685,29.685,0,0,0,2.377-4.912.656.656,0,0,0-.387-.843.654.654,0,0,0-.842.387,28.538,28.538,0,0,1-2.274,4.7.656.656,0,0,0,.225.9l.336.092a.658.658,0,0,0,.564-.319m-6.789,8.434a48.392,48.392,0,0,0,3.657-3.994.656.656,0,0,0-.094-.922.657.657,0,0,0-.922.1,47.324,47.324,0,0,1-3.559,3.884.655.655,0,0,0-.009.928.656.656,0,0,0,.468.2.652.652,0,0,0,.459-.187m-7.205,7.7a34.146,34.146,0,0,1,3.345-4.031.656.656,0,0,0-.016-.927.657.657,0,0,0-.927.016,35.483,35.483,0,0,0-3.475,4.187.654.654,0,0,0,.159.913.652.652,0,0,0,.378.121.654.654,0,0,0,.536-.278m-4.348,9.426a26.52,26.52,0,0,1,1.725-4.912.657.657,0,0,0-.317-.872.656.656,0,0,0-.872.319,27.771,27.771,0,0,0-1.809,5.156.655.655,0,0,0,.483.792l.155.018a.655.655,0,0,0,.636-.5m-.889,11.1a.658.658,0,0,0,.536-.757,26.115,26.115,0,0,1-.366-4.335c0-.285.005-.57.014-.855a.655.655,0,0,0-.633-.678.646.646,0,0,0-.677.633c-.011.3-.016.6-.016.9a27.474,27.474,0,0,0,.384,4.554.656.656,0,0,0,.645.547l.112-.009m3.957,9.866a.657.657,0,0,0,.222-.9,28.477,28.477,0,0,1-2.28-4.691.656.656,0,0,0-.844-.383.655.655,0,0,0-.383.844,29.744,29.744,0,0,0,2.385,4.909.656.656,0,0,0,.561.316l.34-.094m13.68,1.7a4.765,4.765,0,0,1,3.484-2.883.656.656,0,0,0,.515-.771.654.654,0,0,0-.772-.514,6.041,6.041,0,0,0-4.429,3.645.656.656,0,0,0,.34.863l.261.055a.656.656,0,0,0,.6-.395m12.454,1.884a.654.654,0,0,0,.271-.886,9.254,9.254,0,0,0-.837-1.29,10.89,10.89,0,0,0-3.075-2.771.654.654,0,0,0-.9.228.655.655,0,0,0,.229.9,9.625,9.625,0,0,1,2.7,2.443,8,8,0,0,1,.719,1.108.655.655,0,0,0,.579.347l.307-.077m-18.884,4.185a.656.656,0,0,0-.121-.919,27.472,27.472,0,0,1-3.813-3.556.656.656,0,0,0-.926-.055.657.657,0,0,0-.055.926,28.848,28.848,0,0,0,4,3.725.652.652,0,0,0,.4.136.656.656,0,0,0,.521-.257M429.9-409.78a7.953,7.953,0,0,0,4.588-3.378.654.654,0,0,0-.237-.9.654.654,0,0,0-.9.237,6.671,6.671,0,0,1-3.851,2.786.656.656,0,0,0-.427.822.654.654,0,0,0,.625.458l.2-.03m-4.834-.109a.655.655,0,0,0-.577-.725q-.411-.049-.823-.119l-.009-.011a9.17,9.17,0,0,1-2.375-4.311.656.656,0,0,0-.779-.5.656.656,0,0,0-.5.78,9.826,9.826,0,0,0,1.562,3.526,17.126,17.126,0,0,1-1.989-.776.652.652,0,0,0-.869.32.654.654,0,0,0,.319.869,17.376,17.376,0,0,0,5.317,1.526l.076,0a.657.657,0,0,0,.65-.581m7.854,5.167a.655.655,0,0,0-.405-.834,29.8,29.8,0,0,1-4.778-2.1.656.656,0,0,0-.893.252.657.657,0,0,0,.253.893,31.17,31.17,0,0,0,4.989,2.194l.215.037a.655.655,0,0,0,.619-.442m10.432,2.255a.653.653,0,0,0-.559-.74c-1.83-.257-3.582-.57-5.207-.932a.657.657,0,0,0-.781.5.654.654,0,0,0,.5.783c1.659.37,3.445.691,5.31.952l.09.007a.656.656,0,0,0,.649-.565m10.655.785a.657.657,0,0,0-.635-.677c-1.826-.054-3.612-.148-5.305-.281a.665.665,0,0,0-.705.6.657.657,0,0,0,.6.705c1.714.134,3.521.23,5.367.285h.021a.655.655,0,0,0,.654-.635m10.685.323a.654.654,0,0,0-.632-.678q-2.573-.089-5.345-.173a.669.669,0,0,0-.675.636.656.656,0,0,0,.635.675q2.769.083,5.339.172h.024a.656.656,0,0,0,.654-.633" transform="translate(2255.409 407.51)" fill="#fffeff"/>
    <path id="path2214" d="M394.568-498.44a.653.653,0,0,1-.614-.426.655.655,0,0,1,.384-.843,23.882,23.882,0,0,1,2.592-.749.657.657,0,0,1,.789.487.656.656,0,0,1-.487.789,23.19,23.19,0,0,0-2.437.7l-.228.041" transform="translate(2259.334 407.495)" fill="#fffeff"/>
    <path id="path2216" d="M437.2-387.607a1.514,1.514,0,0,1,1.33-1.676,1.512,1.512,0,0,1,1.674,1.328,1.514,1.514,0,0,1-1.328,1.676,1.518,1.518,0,0,1-1.113-.317,1.511,1.511,0,0,1-.562-1.011m1.825,2.63A2.826,2.826,0,0,0,441.5-388.1a2.806,2.806,0,0,0-1.049-1.888,2.8,2.8,0,0,0-2.078-.593,2.825,2.825,0,0,0-2.481,3.127,2.827,2.827,0,0,0,2.8,2.5l.325-.02" transform="translate(2256.63 405.672)" fill="#fffeff"/>
    <path id="path2218" d="M392.046-415.013a1.5,1.5,0,0,1-.319,1.112,1.5,1.5,0,0,1-1.011.563,1.518,1.518,0,0,1-1.674-1.328,1.514,1.514,0,0,1,1.328-1.676l.174-.009A1.515,1.515,0,0,1,392.046-415.013Zm-1.179,2.976a2.826,2.826,0,0,0,2.481-3.127,2.831,2.831,0,0,0-3.127-2.481,2.809,2.809,0,0,0-1.888,1.049,2.808,2.808,0,0,0-.593,2.078,2.809,2.809,0,0,0,1.049,1.888,2.805,2.805,0,0,0,1.749.612l.329-.02" transform="translate(2259.686 406.121)" fill="#fffeff"/>
    <path id="path2220" d="M329.578-370.187a1.5,1.5,0,0,1,.561,1.012,1.493,1.493,0,0,1-.317,1.112,1.5,1.5,0,0,1-1.011.561,1.479,1.479,0,0,1-1.113-.317,1.505,1.505,0,0,1-.563-1.011,1.5,1.5,0,0,1,.319-1.112,1.5,1.5,0,0,1,1.011-.563l.176-.01A1.505,1.505,0,0,1,329.578-370.187Zm-.618,3.989a2.806,2.806,0,0,0,1.888-1.049,2.805,2.805,0,0,0,.594-2.078,2.8,2.8,0,0,0-1.05-1.888,2.8,2.8,0,0,0-2.077-.593,2.807,2.807,0,0,0-1.889,1.049,2.809,2.809,0,0,0-.593,2.078,2.8,2.8,0,0,0,1.05,1.888,2.8,2.8,0,0,0,1.749.611l.328-.018" transform="translate(2263.899 405.361)" fill="#fffeff"/>
    <path id="path2222" d="M387.589-447.993a1.506,1.506,0,0,1-.317,1.113,1.5,1.5,0,0,1-1.012.561,1.516,1.516,0,0,1-1.674-1.328,1.514,1.514,0,0,1,1.33-1.674l.173-.009A1.513,1.513,0,0,1,387.589-447.993Zm-1.18,2.978a2.805,2.805,0,0,0,1.889-1.05,2.8,2.8,0,0,0,.593-2.077,2.829,2.829,0,0,0-3.127-2.481,2.809,2.809,0,0,0-1.888,1.049,2.807,2.807,0,0,0-.593,2.078,2.8,2.8,0,0,0,1.049,1.887,2.8,2.8,0,0,0,1.749.612l.328-.018" transform="translate(2259.969 406.668)" fill="#fffeff"/>
    <path id="path2224" d="M401.938-490.832a1.5,1.5,0,0,1,.562,1.011,1.513,1.513,0,0,1-1.328,1.674,1.519,1.519,0,0,1-1.676-1.328,1.515,1.515,0,0,1,1.33-1.674l.176-.01A1.5,1.5,0,0,1,401.938-490.832Zm-.616,3.989a2.808,2.808,0,0,0,1.888-1.05,2.8,2.8,0,0,0,.593-2.077,2.829,2.829,0,0,0-3.127-2.481,2.824,2.824,0,0,0-2.481,3.126,2.826,2.826,0,0,0,2.8,2.5l.325-.018" transform="translate(2259.023 407.362)" fill="#fffeff"/>
    <path id="path2226" d="M329.578-500.938a1.5,1.5,0,0,1,.561,1.011,1.5,1.5,0,0,1-.317,1.113,1.5,1.5,0,0,1-1.011.561,1.515,1.515,0,0,1-1.676-1.328,1.515,1.515,0,0,1,1.33-1.674l.176-.01A1.506,1.506,0,0,1,329.578-500.938Zm-.618,3.987A2.8,2.8,0,0,0,330.849-498a2.8,2.8,0,0,0,.594-2.077,2.8,2.8,0,0,0-1.05-1.888,2.79,2.79,0,0,0-2.077-.593,2.812,2.812,0,0,0-1.889,1.049,2.805,2.805,0,0,0-.593,2.077,2.8,2.8,0,0,0,1.05,1.888,2.8,2.8,0,0,0,1.749.612l.328-.02" transform="translate(2263.899 407.53)" fill="#fffeff"/>
    <path id="path2228" d="M409.978-470.475a3.455,3.455,0,0,1,1.293,2.327,3.457,3.457,0,0,1-.73,2.559,3.459,3.459,0,0,1-2.327,1.294,3.487,3.487,0,0,1-3.854-3.058,3.455,3.455,0,0,1,.732-2.561,3.457,3.457,0,0,1,2.326-1.293,3.525,3.525,0,0,1,.406-.024,3.459,3.459,0,0,1,2.154.754m-1.614,7.483a4.76,4.76,0,0,0,3.2-1.781,4.764,4.764,0,0,0,1.006-3.525,4.755,4.755,0,0,0-1.782-3.2,4.738,4.738,0,0,0-3.525-1.006,4.751,4.751,0,0,0-3.2,1.781,4.757,4.757,0,0,0-1.006,3.525,4.762,4.762,0,0,0,1.781,3.2,4.748,4.748,0,0,0,2.967,1.037,4.725,4.725,0,0,0,.559-.031" transform="translate(2258.611 407.031)" fill="#fffeff"/>
    <path id="path2230" d="M373.928-431.371a2.963,2.963,0,0,1-2.6,3.277,2.961,2.961,0,0,1-3.277-2.6,2.961,2.961,0,0,1,2.6-3.277l.342-.02A2.961,2.961,0,0,1,373.928-431.371Zm-2.451,4.579a4.276,4.276,0,0,0,3.753-4.73,4.274,4.274,0,0,0-4.73-3.753,4.273,4.273,0,0,0-3.751,4.73,4.274,4.274,0,0,0,4.238,3.78,4.412,4.412,0,0,0,.49-.027" transform="translate(2260.976 406.414)" fill="#fffeff"/>
  </g>
</svg>
