<svg xmlns="http://www.w3.org/2000/svg" xmlns:xlink="http://www.w3.org/1999/xlink" width="72" height="72" viewBox="0 0 72 72"><defs><style>.a{fill:#0069b1;stroke:#fff;stroke-width:2px;}.b{fill:#fff;}.c{stroke:none;}.d{fill:none;}.e{filter:url(#a);}</style><filter id="a" x="0" y="0" width="72" height="72" filterUnits="userSpaceOnUse"><feOffset input="SourceAlpha"/><feGaussianBlur stdDeviation="4" result="b"/><feFlood flood-opacity="0.349"/><feComposite operator="in" in2="b"/><feComposite in="SourceGraphic"/></filter></defs><g transform="translate(12 12)"><g class="e" transform="matrix(1, 0, 0, 1, -12, -12)"><g class="a" transform="translate(12 12)"><circle class="c" cx="24" cy="24" r="24"/><circle class="d" cx="24" cy="24" r="23"/></g></g><path class="b" d="M-2.813,2.386a.937.937,0,0,0-.937.938V5.563a.937.937,0,0,0,.937.938H4.313a.937.937,0,0,0,.938-.937V3.323a.937.937,0,0,0-.937-.937H3.375V-7.562A.937.937,0,0,0,2.438-8.5h-5.25a.937.937,0,0,0-.937.938v2.239a.937.937,0,0,0,.937.937h.938V2.386ZM.75-17.5a3.375,3.375,0,0,0-3.375,3.375A3.375,3.375,0,0,0,.75-10.75a3.375,3.375,0,0,0,3.375-3.375A3.375,3.375,0,0,0,.75-17.5Z" transform="translate(23.75 29.5)"/></g></svg>