<svg xmlns="http://www.w3.org/2000/svg" xmlns:xlink="http://www.w3.org/1999/xlink" width="72" height="72" viewBox="0 0 72 72"><defs><style>.a{fill:#0069b1;stroke:#fff;stroke-width:2px;}.b{fill:#fff;}.c{stroke:none;}.d{fill:none;}.e{filter:url(#a);}</style><filter id="a" x="0" y="0" width="72" height="72" filterUnits="userSpaceOnUse"><feOffset input="SourceAlpha"/><feGaussianBlur stdDeviation="4" result="b"/><feFlood flood-opacity="0.349"/><feComposite operator="in" in2="b"/><feComposite in="SourceGraphic"/></filter></defs><g transform="translate(12 12)"><g transform="translate(-965 -324)"><g class="e" transform="matrix(1, 0, 0, 1, 953, 312)"><g class="a" transform="translate(12 12)"><circle class="c" cx="24" cy="24" r="24"/><circle class="d" cx="24" cy="24" r="23"/></g></g></g><path class="b" d="M23.968,24.336H2.479A2.479,2.479,0,0,1,0,21.856V6.979A2.479,2.479,0,0,1,2.479,4.5H23.968a2.479,2.479,0,0,1,2.479,2.479V21.856A2.479,2.479,0,0,1,23.968,24.336ZM5.785,7.393a2.893,2.893,0,1,0,2.893,2.893A2.893,2.893,0,0,0,5.785,7.393ZM3.306,21.03H23.142V15.244l-4.521-4.521a.62.62,0,0,0-.877,0l-7,7L7.877,14.856a.62.62,0,0,0-.877,0L3.306,18.55Z" transform="translate(11 9.5)"/></g></svg>