<svg xmlns="http://www.w3.org/2000/svg" width="5.624" height="8.182" viewBox="0 0 5.624 8.182"><defs><style>.a{fill:#279ae1;}</style></defs><path class="a" d="M4.619,0a3.1,3.1,0,0,0-2.75,1.455.384.384,0,0,0,.083.525l.689.523a.384.384,0,0,0,.531-.066,1.55,1.55,0,0,1,1.323-.79c.492,0,1.1.316,1.1.793,0,.36-.3.545-.783.818-.566.317-1.315.712-1.315,1.7v.156A.384.384,0,0,0,3.88,5.5H5.038a.384.384,0,0,0,.384-.384V5.022c0-.685,2-.713,2-2.567A2.746,2.746,0,0,0,4.619,0Zm-.16,5.968A1.107,1.107,0,1,0,5.566,7.075,1.108,1.108,0,0,0,4.459,5.968Z" transform="translate(-1.8)"/></svg>