<svg xmlns="http://www.w3.org/2000/svg" xmlns:xlink="http://www.w3.org/1999/xlink" width="30" height="30" viewBox="0 0 30 30"><defs><style>.a{fill:#fff;}.b{fill:#279ae1;}.c{filter:url(#a);}</style><filter id="a" x="0" y="0" width="30" height="30" filterUnits="userSpaceOnUse"><feOffset dy="3" input="SourceAlpha"/><feGaussianBlur stdDeviation="3" result="b"/><feFlood flood-opacity="0.161"/><feComposite operator="in" in2="b"/><feComposite in="SourceGraphic"/></filter></defs><g transform="translate(-483 -668.5)"><g class="c" transform="matrix(1, 0, 0, 1, 483, 668.5)"><circle class="a" cx="6" cy="6" r="6" transform="translate(9 6)"/></g><path class="b" d="M4.619,0a3.1,3.1,0,0,0-2.75,1.455.384.384,0,0,0,.083.525l.689.523a.384.384,0,0,0,.531-.066,1.55,1.55,0,0,1,1.323-.79c.492,0,1.1.316,1.1.793,0,.36-.3.545-.783.818-.566.317-1.315.712-1.315,1.7v.156A.384.384,0,0,0,3.88,5.5H5.038a.384.384,0,0,0,.384-.384V5.022c0-.685,2-.713,2-2.567A2.746,2.746,0,0,0,4.619,0Zm-.16,5.968A1.107,1.107,0,1,0,5.566,7.075,1.108,1.108,0,0,0,4.459,5.968Z" transform="translate(493.618 676.551)"/></g></svg>