<svg xmlns="http://www.w3.org/2000/svg" xmlns:xlink="http://www.w3.org/1999/xlink" width="30" height="30" viewBox="0 0 30 30"><defs><style>.a{fill:#fff;}.b{fill:#279ae1;}.c{filter:url(#a);}</style><filter id="a" x="0" y="0" width="30" height="30" filterUnits="userSpaceOnUse"><feOffset dy="3" input="SourceAlpha"/><feGaussianBlur stdDeviation="3" result="b"/><feFlood flood-opacity="0.161"/><feComposite operator="in" in2="b"/><feComposite in="SourceGraphic"/></filter></defs><g transform="translate(-853.439 -682.439)"><g class="c" transform="matrix(1, 0, 0, 1, 853.44, 682.44)"><circle class="a" cx="6" cy="6" r="6" transform="translate(9 6)"/></g><path class="b" d="M6.1,3.856c1.949,0,3.53,1.284,3.53,2.868S8.05,9.592,6.1,9.592a4.359,4.359,0,0,1-.55-.035,3.437,3.437,0,0,1-2.538.914v-.186A1.4,1.4,0,0,0,3.894,9.15a1.331,1.331,0,0,0-.015-.2A2.7,2.7,0,0,1,2.571,6.724C2.571,5.14,4.151,3.856,6.1,3.856Z" transform="translate(862.194 686.858)"/></g></svg>