<svg xmlns="http://www.w3.org/2000/svg" width="48" height="48" viewBox="0 0 48 48"><defs><style>.a{fill:#7fe1a5;}.b{fill:#15512f;}</style></defs><g transform="translate(-1147 -25)"><circle class="a" cx="24" cy="24" r="24" transform="translate(1147 25)"/><path class="b" d="M10.08-17.67,5.909-13.5H1.125A1.125,1.125,0,0,0,0-12.375v6.75A1.125,1.125,0,0,0,1.125-4.5H5.909L10.08-.33a1.126,1.126,0,0,0,1.92-.8V-16.874A1.126,1.126,0,0,0,10.08-17.67ZM21.639-9l2.139-2.139a.757.757,0,0,0,0-1.07l-1.07-1.07a.757.757,0,0,0-1.07,0L19.5-11.139l-2.139-2.139a.757.757,0,0,0-1.07,0l-1.07,1.07a.757.757,0,0,0,0,1.07L17.361-9,15.222-6.861a.756.756,0,0,0,0,1.07l1.07,1.07a.756.756,0,0,0,1.07,0L19.5-6.861l2.139,2.139a.757.757,0,0,0,1.07,0l1.07-1.07a.757.757,0,0,0,0-1.07Z" transform="translate(1159 58)"/></g></svg>