<svg xmlns="http://www.w3.org/2000/svg" xmlns:xlink="http://www.w3.org/1999/xlink" width="34" height="34" viewBox="0 0 34 34"><defs><style>.a{fill:#fff;}.b{fill:#279ae1;}.c{filter:url(#a);}</style><filter id="a" x="0" y="0" width="34" height="34" filterUnits="userSpaceOnUse"><feOffset dy="3" input="SourceAlpha"/><feGaussianBlur stdDeviation="3" result="b"/><feFlood flood-opacity="0.161"/><feComposite operator="in" in2="b"/><feComposite in="SourceGraphic"/></filter></defs><g transform="translate(-483.359 -668.859)"><g class="c" transform="matrix(1, 0, 0, 1, 483.36, 668.86)"><circle class="a" cx="8" cy="8" r="8" transform="translate(9 6)"/></g><path class="b" d="M5.643,0a4.221,4.221,0,0,0-3.75,1.983.523.523,0,0,0,.113.716l.94.713a.523.523,0,0,0,.724-.09,2.114,2.114,0,0,1,1.8-1.077c.67,0,1.5.431,1.5,1.081,0,.491-.406.744-1.067,1.115-.772.433-1.793.971-1.793,2.318v.213a.523.523,0,0,0,.523.523H6.215a.523.523,0,0,0,.523-.523V6.846c0-.934,2.729-.973,2.729-3.5C9.467,1.443,7.493,0,5.643,0ZM5.425,8.136A1.509,1.509,0,1,0,6.934,9.646,1.511,1.511,0,0,0,5.425,8.136Z" transform="translate(494.56 677.359)"/></g></svg>