<svg xmlns="http://www.w3.org/2000/svg" xmlns:xlink="http://www.w3.org/1999/xlink" width="67" height="67" viewBox="0 0 67 67"><defs><style>.a{fill:#ef6811;}.b{fill:#fff;}.c{filter:url(#a);}</style><filter id="a" x="0" y="0" width="67" height="67" filterUnits="userSpaceOnUse"><feOffset dy="3" input="SourceAlpha"/><feGaussianBlur stdDeviation="3" result="b"/><feFlood flood-opacity="0.259"/><feComposite operator="in" in2="b"/><feComposite in="SourceGraphic"/></filter></defs><g transform="translate(9 6)"><g class="c" transform="matrix(1, 0, 0, 1, -9, -6)"><circle class="a" cx="24.5" cy="24.5" r="24.5" transform="translate(9 6)"/></g><path class="b" d="M8.469,6.263a1.247,1.247,0,0,0,1.763,0L24.57-8.074a1.247,1.247,0,0,0,0-1.763L22.807-11.6a1.247,1.247,0,0,0-1.763,0L9.351.092,3.891-5.367a1.247,1.247,0,0,0-1.763,0L.365-3.6a1.247,1.247,0,0,0,0,1.763Z" transform="translate(12.273 27.391)"/></g></svg>