<svg xmlns="http://www.w3.org/2000/svg" width="48" height="48" viewBox="0 0 48 48">
  <g id="Group_921" data-name="Group 921" transform="translate(-2604 -8135)">
    <g id="fullscreen" transform="translate(2604 8135)">
      <circle id="Ellipse_1" data-name="Ellipse 1" cx="24" cy="24" r="24" fill="#3d81ff"/>
      <path id="expand-solid" d="M0,38.607V33.071A1.069,1.069,0,0,1,1.071,32H6.607a.537.537,0,0,1,.536.536v1.786a.537.537,0,0,1-.536.536H2.857v3.75a.537.537,0,0,1-.536.536H.536A.537.537,0,0,1,0,38.607Zm12.857-6.071v1.786a.537.537,0,0,0,.536.536h3.75v3.75a.537.537,0,0,0,.536.536h1.786A.537.537,0,0,0,20,38.607V33.071A1.069,1.069,0,0,0,18.929,32H13.393A.537.537,0,0,0,12.857,32.536Zm6.607,12.321H17.679a.537.537,0,0,0-.536.536v3.75h-3.75a.537.537,0,0,0-.536.536v1.786a.537.537,0,0,0,.536.536h5.536A1.069,1.069,0,0,0,20,50.929V45.393A.537.537,0,0,0,19.464,44.857ZM7.143,51.464V49.679a.537.537,0,0,0-.536-.536H2.857v-3.75a.537.537,0,0,0-.536-.536H.536A.537.537,0,0,0,0,45.393v5.536A1.069,1.069,0,0,0,1.071,52H6.607A.537.537,0,0,0,7.143,51.464Z" transform="translate(14 -18)" fill="#fff" opacity="0"/>
    </g>
    <path id="compress-solid" d="M19.464,39.143H13.929a1.069,1.069,0,0,1-1.071-1.071V32.536A.537.537,0,0,1,13.393,32h1.786a.537.537,0,0,1,.536.536v3.75h3.75a.537.537,0,0,1,.536.536v1.786A.537.537,0,0,1,19.464,39.143ZM7.143,38.071V32.536A.537.537,0,0,0,6.607,32H4.821a.537.537,0,0,0-.536.536v3.75H.536A.537.537,0,0,0,0,36.821v1.786a.537.537,0,0,0,.536.536H6.071A1.069,1.069,0,0,0,7.143,38.071Zm0,13.393V45.929a1.069,1.069,0,0,0-1.071-1.071H.536A.537.537,0,0,0,0,45.393v1.786a.537.537,0,0,0,.536.536h3.75v3.75A.537.537,0,0,0,4.821,52H6.607A.537.537,0,0,0,7.143,51.464Zm8.571,0v-3.75h3.75A.537.537,0,0,0,20,47.179V45.393a.537.537,0,0,0-.536-.536H13.929a1.069,1.069,0,0,0-1.071,1.071v5.536a.537.537,0,0,0,.536.536h1.786A.537.537,0,0,0,15.714,51.464Z" transform="translate(2618 8117)" fill="#fff"/>
  </g>
</svg>
