<svg xmlns="http://www.w3.org/2000/svg" width="24" height="24" viewBox="0 0 24 24"><defs><style>.a{fill:#e41a1a;}</style></defs><path class="a" d="M26.352,21.209h0l-7.281-7.281,7.281-7.281h0a.752.752,0,0,0,0-1.06L22.912,2.147a.752.752,0,0,0-1.06,0h0L14.571,9.428,7.29,2.147h0a.752.752,0,0,0-1.06,0L2.79,5.587a.752.752,0,0,0,0,1.06h0l7.281,7.281L2.79,21.209h0a.752.752,0,0,0,0,1.06l3.439,3.439a.752.752,0,0,0,1.06,0h0l7.281-7.281,7.281,7.281h0a.752.752,0,0,0,1.06,0l3.439-3.439a.752.752,0,0,0,0-1.06Z" transform="translate(-2.571 -1.928)"/></svg>