<svg xmlns="http://www.w3.org/2000/svg" width="9.622" height="14" viewBox="0 0 9.622 14"><defs><style>.a{fill:#fff;}</style></defs><path class="a" d="M6.624,0A5.3,5.3,0,0,0,1.918,2.489a.657.657,0,0,0,.142.9l1.18.894a.656.656,0,0,0,.909-.113A2.653,2.653,0,0,1,6.411,2.817c.841,0,1.882.541,1.882,1.357,0,.617-.509.933-1.34,1.4-.969.543-2.25,1.219-2.25,2.91V8.75a.656.656,0,0,0,.656.656H7.341A.656.656,0,0,0,8,8.75V8.592C8,7.42,11.422,7.371,11.422,4.2,11.422,1.812,8.945,0,6.624,0ZM6.35,10.212a1.894,1.894,0,1,0,1.894,1.894A1.9,1.9,0,0,0,6.35,10.212Z" transform="translate(-1.8)"/></svg>