<svg xmlns="http://www.w3.org/2000/svg" xmlns:xlink="http://www.w3.org/1999/xlink" width="36" height="36" viewBox="0 0 36 36"><defs><style>.a{fill:#fff;}.b{fill:#279ae1;}.c{filter:url(#a);}</style><filter id="a" x="0" y="0" width="36" height="36" filterUnits="userSpaceOnUse"><feOffset dy="3" input="SourceAlpha"/><feGaussianBlur stdDeviation="3" result="b"/><feFlood flood-opacity="0.161"/><feComposite operator="in" in2="b"/><feComposite in="SourceGraphic"/></filter></defs><g transform="translate(-853 -682)"><g class="c" transform="matrix(1, 0, 0, 1, 853, 682)"><circle class="a" cx="9" cy="9" r="9" transform="translate(9 6)"/></g><path class="b" d="M7.678,3.856c2.821,0,5.107,1.858,5.107,4.15s-2.287,4.15-5.107,4.15a6.308,6.308,0,0,1-.8-.05,4.974,4.974,0,0,1-3.673,1.323v-.268a2.032,2.032,0,0,0,1.277-1.642,1.927,1.927,0,0,0-.022-.286A3.907,3.907,0,0,1,2.571,8.006C2.571,5.714,4.857,3.856,7.678,3.856Z" transform="translate(863.429 688.071)"/></g></svg>