<svg xmlns="http://www.w3.org/2000/svg" width="53.617" height="51.382" viewBox="0 0 53.617 51.382">
  <path id="star" d="M53.477,19.908a2.844,2.844,0,0,0-2.453-1.959L35.549,16.543,29.429,2.221a2.849,2.849,0,0,0-5.241,0l-6.119,14.32L2.591,17.949A2.853,2.853,0,0,0,.974,22.935l11.7,10.259L9.222,48.388a2.845,2.845,0,0,0,4.238,3.079l13.349-7.978,13.344,7.978a2.849,2.849,0,0,0,4.24-3.079L40.944,33.194l11.7-10.257a2.851,2.851,0,0,0,.836-3.029Zm0,0" transform="translate(0 -0.491)" fill="#ffffff"/>
</svg>
