<svg xmlns="http://www.w3.org/2000/svg" xmlns:xlink="http://www.w3.org/1999/xlink" width="36" height="36" viewBox="0 0 36 36"><defs><style>.a{fill:#279ae1;}.b{fill:#fff;}.c{filter:url(#a);}</style><filter id="a" x="0" y="0" width="36" height="36" filterUnits="userSpaceOnUse"><feOffset dy="3" input="SourceAlpha"/><feGaussianBlur stdDeviation="3" result="b"/><feFlood flood-opacity="0.161"/><feComposite operator="in" in2="b"/><feComposite in="SourceGraphic"/></filter></defs><g transform="translate(-483 -668.5)"><g class="c" transform="matrix(1, 0, 0, 1, 483, 668.5)"><circle class="a" cx="9" cy="9" r="9" transform="translate(9 6)"/></g><path class="b" d="M5.924,0A4.53,4.53,0,0,0,1.9,2.128a.562.562,0,0,0,.121.769l1.008.765a.561.561,0,0,0,.777-.1A2.268,2.268,0,0,1,5.742,2.408c.719,0,1.609.463,1.609,1.16,0,.527-.435.8-1.145,1.2-.828.464-1.924,1.042-1.924,2.488v.229a.561.561,0,0,0,.561.561H6.537A.561.561,0,0,0,7.1,7.481V7.346c0-1,2.929-1.044,2.929-3.755C10.027,1.549,7.909,0,5.924,0ZM5.69,8.731A1.619,1.619,0,1,0,7.309,10.35,1.621,1.621,0,0,0,5.69,8.731Z" transform="translate(495.2 677.5)"/></g></svg>