<svg xmlns="http://www.w3.org/2000/svg" width="18.126" height="21" viewBox="0 0 18.126 21"><defs><style>.a{fill:#fff;}</style></defs><g transform="translate(-147 -660)"><path class="a" d="M10.165,8.975l8.067,8.067a1,1,0,0,1,0,1.409l-.941.941a1,1,0,0,1-1.407,0L9.461,13,3.038,19.393a1,1,0,0,1-1.407,0L.69,18.451a1,1,0,0,1,0-1.409L8.757,8.975A1,1,0,0,1,10.165,8.975Z" transform="translate(165.524 679.684) rotate(180)"/><path class="a" d="M10.165,8.975l8.067,8.067a1,1,0,0,1,0,1.409l-.941.941a1,1,0,0,1-1.407,0L9.461,13,3.038,19.393a1,1,0,0,1-1.407,0L.69,18.451a1,1,0,0,1,0-1.409L8.757,8.975A1,1,0,0,1,10.165,8.975Z" transform="translate(165.524 689.684) rotate(180)"/></g></svg>