<svg xmlns="http://www.w3.org/2000/svg" xmlns:xlink="http://www.w3.org/1999/xlink" width="60" height="60" viewBox="0 0 60 60"><defs><style>.a{fill:#fff;}.b{fill:#279ae1;}.c{filter:url(#a);}</style><filter id="a" x="0" y="0" width="60" height="60" filterUnits="userSpaceOnUse"><feOffset dy="3" input="SourceAlpha"/><feGaussianBlur stdDeviation="3" result="b"/><feFlood flood-opacity="0.161"/><feComposite operator="in" in2="b"/><feComposite in="SourceGraphic"/></filter></defs><g transform="translate(-483.359 -668.859)"><g class="c" transform="matrix(1, 0, 0, 1, 483.36, 668.86)"><circle class="a" cx="21" cy="21" r="21" transform="translate(9 6)"/></g><path class="b" d="M11.8,0A10.982,10.982,0,0,0,2.044,5.159a1.362,1.362,0,0,0,.293,1.863L4.783,8.877a1.36,1.36,0,0,0,1.885-.235c1.42-1.779,2.473-2.8,4.691-2.8,1.744,0,3.9,1.122,3.9,2.813,0,1.278-1.055,1.935-2.777,2.9-2.008,1.126-4.665,2.527-4.665,6.031v.555a1.36,1.36,0,0,0,1.36,1.36h4.108a1.36,1.36,0,0,0,1.36-1.36V17.81c0-2.429,7.1-2.53,7.1-9.1C21.746,3.755,16.611,0,11.8,0Zm-.568,21.168a3.926,3.926,0,1,0,3.926,3.926A3.931,3.931,0,0,0,11.232,21.168Z" transform="translate(500.966 681.364)"/></g></svg>