<svg xmlns="http://www.w3.org/2000/svg" xmlns:xlink="http://www.w3.org/1999/xlink" width="60" height="60" viewBox="0 0 60 60"><defs><style>.a{fill:#fff;}.b{fill:#279ae1;}.c{filter:url(#a);}</style><filter id="a" x="0" y="0" width="60" height="60" filterUnits="userSpaceOnUse"><feOffset dy="3" input="SourceAlpha"/><feGaussianBlur stdDeviation="3" result="b"/><feFlood flood-opacity="0.161"/><feComposite operator="in" in2="b"/><feComposite in="SourceGraphic"/></filter></defs><g transform="translate(-852.944 -682.439)"><g class="c" transform="matrix(1, 0, 0, 1, 852.94, 682.44)"><circle class="a" cx="21" cy="21" r="21" transform="translate(9 6)"/></g><path class="b" d="M14.775,3.856c6.74,0,12.2,4.439,12.2,9.916s-5.464,9.916-12.2,9.916a15.073,15.073,0,0,1-1.9-.12c-2.621,2.621-5.75,3.092-8.776,3.161v-.642c1.634-.8,3.051-2.258,3.051-3.924a4.6,4.6,0,0,0-.052-.684,9.335,9.335,0,0,1-4.525-7.706C2.571,8.3,8.035,3.856,14.775,3.856Z" transform="translate(868.576 693.832)"/></g></svg>