<svg xmlns="http://www.w3.org/2000/svg" xmlns:xlink="http://www.w3.org/1999/xlink" width="40" height="40" viewBox="0 0 40 40"><defs><style>.a{fill:#fff;}.b{fill:#279ae1;}.c{filter:url(#a);}</style><filter id="a" x="0" y="0" width="40" height="40" filterUnits="userSpaceOnUse"><feOffset dy="3" input="SourceAlpha"/><feGaussianBlur stdDeviation="3" result="b"/><feFlood flood-opacity="0.161"/><feComposite operator="in" in2="b"/><feComposite in="SourceGraphic"/></filter></defs><g transform="translate(-852.859 -682.355)"><g class="c" transform="matrix(1, 0, 0, 1, 852.86, 682.36)"><circle class="a" cx="11" cy="11" r="11" transform="translate(9 6)"/></g><path class="b" d="M8.843,3.856c3.464,0,6.272,2.282,6.272,5.1s-2.808,5.1-6.272,5.1a7.746,7.746,0,0,1-.978-.062,6.108,6.108,0,0,1-4.51,1.624v-.33a2.5,2.5,0,0,0,1.568-2.017,2.366,2.366,0,0,0-.027-.352,4.8,4.8,0,0,1-2.325-3.96C2.571,6.138,5.379,3.856,8.843,3.856Z" transform="translate(864.103 689.337)"/></g></svg>