<svg xmlns="http://www.w3.org/2000/svg" width="56" height="56" viewBox="0 0 56 56"><defs><style>.a{fill:#0069b1;}.b{fill:#fff;}</style></defs><circle class="a" cx="28" cy="28" r="28"/><path class="b" d="M13.25-10.6v3.728c1.429.323,2.7.854,4.029,1.221V-9.389C15.855-9.707,14.575-10.238,13.25-10.6Zm12.223-6.733a15.985,15.985,0,0,1-6.4,1.746c-2.929,0-5.354-1.9-9.043-1.9a10.644,10.644,0,0,0-3.722.657,3.068,3.068,0,0,0,.2-1.292A3.081,3.081,0,0,0,3.566-21,3.066,3.066,0,0,0,.375-17.934a3.058,3.058,0,0,0,1.314,2.513V5.714A1.311,1.311,0,0,0,3,7.027h.876A1.311,1.311,0,0,0,5.192,5.714V.546a15.262,15.262,0,0,1,6.262-1.21c2.934,0,5.354,1.9,9.043,1.9A11.438,11.438,0,0,0,27.2-1a1.746,1.746,0,0,0,.755-1.445V-15.75A1.749,1.749,0,0,0,25.473-17.337ZM9.221-3.182a17.247,17.247,0,0,0-4.029.909V-6.132a15.659,15.659,0,0,1,4.029-.952Zm16.115-7.363a17.462,17.462,0,0,1-4.029,1.308v3.892a10.174,10.174,0,0,0,4.029-1.423v3.859a8.845,8.845,0,0,1-4.029,1.483V-5.344a9.259,9.259,0,0,1-4.029-.307v3.689A31.939,31.939,0,0,0,13.25-3.127v-3.75a12.167,12.167,0,0,0-4.029-.208v-3.832A19.318,19.318,0,0,0,5.192-9.772v-3.859a15.678,15.678,0,0,1,4.029-1.2v3.919a9.311,9.311,0,0,1,4.029.312v-3.69a31.158,31.158,0,0,0,4.029,1.166v3.744a10.429,10.429,0,0,0,4.029.148v-3.936A19.366,19.366,0,0,0,25.336-14.4Z" transform="translate(14.076 35.013)"/></svg>