<svg xmlns="http://www.w3.org/2000/svg" width="48" height="48" viewBox="0 0 48 48"><defs><style>.a{fill:#3d81ff;}.b{fill:#fff;}</style></defs><circle class="a" cx="24" cy="24" r="24"/><path class="b" d="M2.063-1.5H3.188a.563.563,0,0,0,.563-.562V-12.187a.563.563,0,0,0-.562-.562H2.063a.563.563,0,0,0-.562.563V-2.062A.563.563,0,0,0,2.063-1.5ZM9.75-17.25H5.887L4.293-19.908A2.5,2.5,0,0,0,2.364-21H-2.363a2.5,2.5,0,0,0-1.929,1.092L-5.887-17.25H-9.75a.75.75,0,0,0-.75.75v.75a.75.75,0,0,0,.75.75H-9V.75A2.251,2.251,0,0,0-6.75,3H6.75A2.251,2.251,0,0,0,9,.75V-15h.75a.75.75,0,0,0,.75-.75v-.75A.75.75,0,0,0,9.75-17.25Zm-12.2-1.364A.312.312,0,0,1-2.2-18.75H2.2a.312.312,0,0,1,.241.136l.818,1.364H-3.263ZM6.75.75H-6.75V-15H6.75ZM-3.187-1.5h1.125A.563.563,0,0,0-1.5-2.062V-12.187a.563.563,0,0,0-.562-.562H-3.187a.563.563,0,0,0-.562.563V-2.062A.563.563,0,0,0-3.187-1.5Z" transform="translate(24 33)"/></svg>