<svg xmlns="http://www.w3.org/2000/svg" width="48" height="48" viewBox="0 0 48 48"><defs><style>.a{fill:#7fe1a5;}.b{fill:#15512f;}</style></defs><g transform="translate(-1147 -25)"><circle class="a" cx="24" cy="24" r="24" transform="translate(1147 25)"/><path class="b" d="M23.135-12.494a1.123,1.123,0,0,0-1.786-.261l-.557.552a1.123,1.123,0,0,0-.225,1.279A4.474,4.474,0,0,1,21-8.953,4.534,4.534,0,0,1,16.447-4.5H9V-6.75a1.126,1.126,0,0,0-1.921-.8L3.329-3.8a1.125,1.125,0,0,0,0,1.591l3.75,3.75A1.126,1.126,0,0,0,9,.726V-1.5h7.425A7.548,7.548,0,0,0,24-8.943,7.454,7.454,0,0,0,23.135-12.494ZM3-9.047A4.534,4.534,0,0,1,7.553-13.5H15v2.227a1.126,1.126,0,0,0,1.921.819l3.75-3.75a1.125,1.125,0,0,0,0-1.591l-3.75-3.75A1.126,1.126,0,0,0,15-18.724V-16.5H7.575A7.548,7.548,0,0,0,0-9.057,7.452,7.452,0,0,0,.865-5.506a1.123,1.123,0,0,0,1.786.261L3.207-5.8a1.123,1.123,0,0,0,.225-1.279A4.473,4.473,0,0,1,3-9.047Z" transform="translate(1159 58)"/></g></svg>