<svg xmlns="http://www.w3.org/2000/svg" width="48" height="48" viewBox="0 0 48 48"><defs><style>.a{fill:#3d81ff;}.b{fill:#fff;}</style></defs><circle class="a" cx="24" cy="24" r="24"/><path class="b" d="M-.3-17.668a1.278,1.278,0,0,0,.021,1.837L6.18-9.682H-9.214A1.282,1.282,0,0,0-10.5-8.4v1.714A1.282,1.282,0,0,0-9.214-5.4H6.18L-.274.753A1.287,1.287,0,0,0-.3,2.59L.893,3.779a1.28,1.28,0,0,0,1.816,0L13.122-6.634a1.28,1.28,0,0,0,0-1.816L2.709-18.858a1.28,1.28,0,0,0-1.816,0Z" transform="translate(22.5 31.235)"/></svg>