<svg xmlns="http://www.w3.org/2000/svg" width="48" height="48" viewBox="0 0 48 48"><defs><style>.a{fill:#3d81ff;}.b{fill:#fff;}</style></defs><circle class="a" cx="24" cy="24" r="24"/><path class="b" d="M16.523,6a10.583,10.583,0,0,0-3.612.6L13.492.828A.767.767,0,0,0,12.621,0,7.549,7.549,0,0,0,6,7.47a10.583,10.583,0,0,0,.6,3.612L.828,10.5A.767.767,0,0,0,0,11.371,7.549,7.549,0,0,0,7.47,18a10.583,10.583,0,0,0,3.612-.6L10.5,23.164a.768.768,0,0,0,.871.826A7.549,7.549,0,0,0,18,16.523a10.583,10.583,0,0,0-.6-3.612l5.771.582a.767.767,0,0,0,.826-.871A7.549,7.549,0,0,0,16.523,6ZM12,13.5A1.5,1.5,0,1,1,13.5,12,1.5,1.5,0,0,1,12,13.5Z" transform="translate(12.004 12.004)"/></svg>