<svg xmlns="http://www.w3.org/2000/svg" width="48" height="48" viewBox="0 0 48 48"><defs><style>.a{fill:#7fe1a5;}.b{fill:#15512f;}</style></defs><g transform="translate(-1147 -25)"><circle class="a" cx="24" cy="24" r="24" transform="translate(1147 25)"/><path class="b" d="M10.08-17.67,5.909-13.5H1.125A1.125,1.125,0,0,0,0-12.375v6.75A1.125,1.125,0,0,0,1.125-4.5H5.909L10.08-.33a1.126,1.126,0,0,0,1.92-.8V-16.874A1.126,1.126,0,0,0,10.08-17.67ZM22.5-9a8.655,8.655,0,0,0-4.02-7.324,1.12,1.12,0,0,0-1.553.35,1.138,1.138,0,0,0,.347,1.564A6.4,6.4,0,0,1,20.25-9a6.4,6.4,0,0,1-2.976,5.41,1.138,1.138,0,0,0-.347,1.564,1.122,1.122,0,0,0,1.553.35A8.655,8.655,0,0,0,22.5-9Zm-6.645-3.6a1.129,1.129,0,0,0-1.529.443,1.126,1.126,0,0,0,.443,1.529A1.87,1.87,0,0,1,15.75-9a1.87,1.87,0,0,1-.981,1.632,1.126,1.126,0,0,0-.443,1.529,1.126,1.126,0,0,0,1.529.443A4.122,4.122,0,0,0,18-9,4.12,4.12,0,0,0,15.855-12.6Z" transform="translate(1161 58)"/></g></svg>