<svg xmlns="http://www.w3.org/2000/svg" width="48" height="48" viewBox="0 0 48 48"><defs><style>.a{fill:#3d81ff;}.b{fill:#fff;}</style></defs><circle class="a" cx="24" cy="24" r="24"/><path class="b" d="M-2.813,2.386a.937.937,0,0,0-.937.938V5.563a.937.937,0,0,0,.937.938H4.313a.937.937,0,0,0,.938-.937V3.323a.937.937,0,0,0-.937-.937H3.375V-7.562A.937.937,0,0,0,2.438-8.5h-5.25a.937.937,0,0,0-.937.938v2.239a.937.937,0,0,0,.937.937h.938V2.386ZM.75-17.5a3.375,3.375,0,0,0-3.375,3.375A3.375,3.375,0,0,0,.75-10.75a3.375,3.375,0,0,0,3.375-3.375A3.375,3.375,0,0,0,.75-17.5Z" transform="translate(23 30)"/></svg>