<svg xmlns="http://www.w3.org/2000/svg" width="48" height="48" viewBox="0 0 48 48"><defs><style>.a{fill:none;}.b{fill:#dfdfdf;}</style></defs><rect class="a" width="48" height="48"/><path class="b" d="M20.853-12.493,15.326-1.286,2.96.517a2.71,2.71,0,0,0-1.5,4.621l8.947,8.718L8.292,26.172a2.707,2.707,0,0,0,3.927,2.852l11.063-5.815,11.063,5.815a2.709,2.709,0,0,0,3.927-2.852L36.156,13.856,45.1,5.138A2.71,2.71,0,0,0,43.6.517l-12.366-1.8L25.711-12.493A2.711,2.711,0,0,0,20.853-12.493Z" transform="translate(0.359 15.3)"/></svg>