<svg xmlns="http://www.w3.org/2000/svg" width="48" height="48" viewBox="0 0 48 48"><defs><style>.a{fill:#3d81ff;}.b{fill:#fff;}</style></defs><g transform="translate(-1147 -25)"><circle class="a" cx="24" cy="24" r="24" transform="translate(1147 25)"/><path class="b" d="M9.47-21A9.082,9.082,0,0,0,1.4-16.733a1.126,1.126,0,0,0,.243,1.541l2.022,1.533a1.125,1.125,0,0,0,1.559-.194c1.174-1.471,2.045-2.318,3.879-2.318,1.442,0,3.226.928,3.226,2.326,0,1.057-.873,1.6-2.3,2.4-1.66.931-3.858,2.09-3.858,4.988V-6A1.125,1.125,0,0,0,7.3-4.875h3.4A1.125,1.125,0,0,0,11.824-6v-.271c0-2.009,5.872-2.093,5.872-7.529C17.7-17.894,13.449-21,9.47-21ZM9-3.494A3.251,3.251,0,0,0,5.753-.247,3.251,3.251,0,0,0,9,3,3.251,3.251,0,0,0,12.247-.247,3.251,3.251,0,0,0,9-3.494Z" transform="translate(1161.8 58)"/></g></svg>